<?xml version="1.0" encoding="UTF-8" standalone="no"?>
<!DOCTYPE svg PUBLIC "-//W3C//DTD SVG 1.1//EN"
 "http://www.w3.org/Graphics/SVG/1.1/DTD/svg11.dtd">
<!-- Generated by graphviz version 2.38.0 (20140413.2041)
 -->
<!-- Title: G Pages: 1 -->
<svg width="1820pt" height="124pt"
 viewBox="0.00 0.00 1819.80 123.98" xmlns="http://www.w3.org/2000/svg" xmlns:xlink="http://www.w3.org/1999/xlink">
<g id="graph0" class="graph" transform="scale(1 1) rotate(0) translate(7.992 115.992)">
<title>G</title>
<polygon fill="#000000" stroke="none" points="-7.992,7.992 -7.992,-115.992 1811.81,-115.992 1811.81,7.992 -7.992,7.992"/>
<!-- index.js -->
<g id="node1" class="node"><title>index.js</title>
<ellipse fill="none" stroke="#c6c5fe" cx="922.734" cy="-90" rx="42.4939" ry="18"/>
<text text-anchor="middle" x="922.734" y="-86.3" font-family="Arial" font-size="14.00" fill="#c6c5fe">index.js</text>
</g>
<!-- ../node_modules/fun&#45;function/src/index.js -->
<g id="node2" class="node"><title>../node_modules/fun&#45;function/src/index.js</title>
<ellipse fill="none" stroke="#cfffac" cx="178.734" cy="-18" rx="178.969" ry="18"/>
<text text-anchor="middle" x="178.734" y="-14.3" font-family="Arial" font-size="14.00" fill="#cfffac">../node_modules/fun&#45;function/src/index.js</text>
</g>
<!-- index.js&#45;&gt;../node_modules/fun&#45;function/src/index.js -->
<g id="edge1" class="edge"><title>index.js&#45;&gt;../node_modules/fun&#45;function/src/index.js</title>
<path fill="none" stroke="#757575" d="M881.94,-85.1618C775.778,-75.1735 487.186,-48.021 314.484,-31.7721"/>
<polygon fill="#757575" stroke="#757575" points="314.587,-28.2665 304.303,-30.8143 313.931,-35.2357 314.587,-28.2665"/>
</g>
<!-- ../node_modules/fun&#45;object/src/index.js -->
<g id="node3" class="node"><title>../node_modules/fun&#45;object/src/index.js</title>
<ellipse fill="none" stroke="#cfffac" cx="547.734" cy="-18" rx="172.47" ry="18"/>
<text text-anchor="middle" x="547.734" y="-14.3" font-family="Arial" font-size="14.00" fill="#cfffac">../node_modules/fun&#45;object/src/index.js</text>
</g>
<!-- index.js&#45;&gt;../node_modules/fun&#45;object/src/index.js -->
<g id="edge2" class="edge"><title>index.js&#45;&gt;../node_modules/fun&#45;object/src/index.js</title>
<path fill="none" stroke="#757575" d="M884.713,-81.9028C827.305,-71.1865 716.842,-50.5669 638.039,-35.8569"/>
<polygon fill="#757575" stroke="#757575" points="638.581,-32.3976 628.108,-34.0032 637.296,-39.2788 638.581,-32.3976"/>
</g>
<!-- ../node_modules/fun&#45;predicate/src/index.js -->
<g id="node4" class="node"><title>../node_modules/fun&#45;predicate/src/index.js</title>
<ellipse fill="none" stroke="#cfffac" cx="922.734" cy="-18" rx="185.467" ry="18"/>
<text text-anchor="middle" x="922.734" y="-14.3" font-family="Arial" font-size="14.00" fill="#cfffac">../node_modules/fun&#45;predicate/src/index.js</text>
</g>
<!-- index.js&#45;&gt;../node_modules/fun&#45;predicate/src/index.js -->
<g id="edge3" class="edge"><title>index.js&#45;&gt;../node_modules/fun&#45;predicate/src/index.js</title>
<path fill="none" stroke="#757575" d="M922.734,-71.6966C922.734,-63.9827 922.734,-54.7125 922.734,-46.1124"/>
<polygon fill="#757575" stroke="#757575" points="926.234,-46.1043 922.734,-36.1043 919.234,-46.1044 926.234,-46.1043"/>
</g>
<!-- ../node_modules/fun&#45;type/src/index.js -->
<g id="node5" class="node"><title>../node_modules/fun&#45;type/src/index.js</title>
<ellipse fill="none" stroke="#cfffac" cx="1290.73" cy="-18" rx="164.371" ry="18"/>
<text text-anchor="middle" x="1290.73" y="-14.3" font-family="Arial" font-size="14.00" fill="#cfffac">../node_modules/fun&#45;type/src/index.js</text>
</g>
<!-- index.js&#45;&gt;../node_modules/fun&#45;type/src/index.js -->
<g id="edge4" class="edge"><title>index.js&#45;&gt;../node_modules/fun&#45;type/src/index.js</title>
<path fill="none" stroke="#757575" d="M960.731,-81.7724C1017.32,-71.0078 1125.34,-50.4611 1202.38,-35.8073"/>
<polygon fill="#757575" stroke="#757575" points="1203.39,-39.1777 1212.56,-33.8706 1202.08,-32.301 1203.39,-39.1777"/>
</g>
<!-- ../node_modules/guarded/src/index.js -->
<g id="node6" class="node"><title>../node_modules/guarded/src/index.js</title>
<ellipse fill="none" stroke="#cfffac" cx="1638.73" cy="-18" rx="165.171" ry="18"/>
<text text-anchor="middle" x="1638.73" y="-14.3" font-family="Arial" font-size="14.00" fill="#cfffac">../node_modules/guarded/src/index.js</text>
</g>
<!-- index.js&#45;&gt;../node_modules/guarded/src/index.js -->
<g id="edge5" class="edge"><title>index.js&#45;&gt;../node_modules/guarded/src/index.js</title>
<path fill="none" stroke="#757575" d="M963.541,-85.0105C1067.36,-74.8604 1344.99,-47.7176 1510.13,-31.5732"/>
<polygon fill="#757575" stroke="#757575" points="1510.74,-35.0304 1520.35,-30.5739 1510.06,-28.0636 1510.74,-35.0304"/>
</g>
</g>
</svg>
